<mxfile host="65bd71144e">
    <diagram id="U64DiW6BehQ8CNbcNM8x" name="第 1 页">
        <mxGraphModel dx="1379" dy="964" grid="1" gridSize="10" guides="1" tooltips="1" connect="1" arrows="1" fold="1" page="1" pageScale="1" pageWidth="1169" pageHeight="827" math="0" shadow="0">
            <root>
                <mxCell id="0"/>
                <mxCell id="1" parent="0"/>
                <mxCell id="193" value="" style="rounded=0;whiteSpace=wrap;html=1;fontSize=15;" vertex="1" parent="1">
                    <mxGeometry x="40" y="40" width="1000" height="800" as="geometry"/>
                </mxCell>
                <mxCell id="2" value="A" style="ellipse;whiteSpace=wrap;html=1;aspect=fixed;" vertex="1" parent="1">
                    <mxGeometry x="280" y="120" width="40" height="40" as="geometry"/>
                </mxCell>
                <mxCell id="3" value="B" style="ellipse;whiteSpace=wrap;html=1;aspect=fixed;" vertex="1" parent="1">
                    <mxGeometry x="220" y="200" width="40" height="40" as="geometry"/>
                </mxCell>
                <mxCell id="4" value="C" style="ellipse;whiteSpace=wrap;html=1;aspect=fixed;" vertex="1" parent="1">
                    <mxGeometry x="340" y="200" width="40" height="40" as="geometry"/>
                </mxCell>
                <mxCell id="5" value="G" style="ellipse;whiteSpace=wrap;html=1;aspect=fixed;" vertex="1" parent="1">
                    <mxGeometry x="380" y="280" width="40" height="40" as="geometry"/>
                </mxCell>
                <mxCell id="6" value="D" style="ellipse;whiteSpace=wrap;html=1;aspect=fixed;" vertex="1" parent="1">
                    <mxGeometry x="160" y="280" width="40" height="40" as="geometry"/>
                </mxCell>
                <mxCell id="7" value="E" style="ellipse;whiteSpace=wrap;html=1;aspect=fixed;" vertex="1" parent="1">
                    <mxGeometry x="220" y="280" width="40" height="40" as="geometry"/>
                </mxCell>
                <mxCell id="8" value="F" style="ellipse;whiteSpace=wrap;html=1;aspect=fixed;" vertex="1" parent="1">
                    <mxGeometry x="280" y="280" width="40" height="40" as="geometry"/>
                </mxCell>
                <mxCell id="9" value="H" style="ellipse;whiteSpace=wrap;html=1;aspect=fixed;" vertex="1" parent="1">
                    <mxGeometry x="180" y="360" width="40" height="40" as="geometry"/>
                </mxCell>
                <mxCell id="10" value="I" style="ellipse;whiteSpace=wrap;html=1;aspect=fixed;" vertex="1" parent="1">
                    <mxGeometry x="260" y="360" width="40" height="40" as="geometry"/>
                </mxCell>
                <mxCell id="11" value="" style="endArrow=none;html=1;entryX=0;entryY=1;entryDx=0;entryDy=0;exitX=0.5;exitY=0;exitDx=0;exitDy=0;" edge="1" parent="1" source="3" target="2">
                    <mxGeometry width="50" height="50" relative="1" as="geometry">
                        <mxPoint x="160" y="230" as="sourcePoint"/>
                        <mxPoint x="210" y="180" as="targetPoint"/>
                    </mxGeometry>
                </mxCell>
                <mxCell id="12" value="" style="endArrow=none;html=1;entryX=1;entryY=1;entryDx=0;entryDy=0;exitX=0.5;exitY=0;exitDx=0;exitDy=0;" edge="1" parent="1" source="4" target="2">
                    <mxGeometry width="50" height="50" relative="1" as="geometry">
                        <mxPoint x="400" y="240" as="sourcePoint"/>
                        <mxPoint x="450" y="190" as="targetPoint"/>
                    </mxGeometry>
                </mxCell>
                <mxCell id="13" value="" style="endArrow=none;html=1;entryX=0;entryY=1;entryDx=0;entryDy=0;exitX=0.5;exitY=0;exitDx=0;exitDy=0;" edge="1" parent="1" source="6" target="3">
                    <mxGeometry width="50" height="50" relative="1" as="geometry">
                        <mxPoint x="130" y="300" as="sourcePoint"/>
                        <mxPoint x="180" y="250" as="targetPoint"/>
                    </mxGeometry>
                </mxCell>
                <mxCell id="14" value="" style="endArrow=none;html=1;entryX=1;entryY=1;entryDx=0;entryDy=0;exitX=0.5;exitY=0;exitDx=0;exitDy=0;" edge="1" parent="1" source="8" target="3">
                    <mxGeometry width="50" height="50" relative="1" as="geometry">
                        <mxPoint x="360" y="450" as="sourcePoint"/>
                        <mxPoint x="410" y="400" as="targetPoint"/>
                    </mxGeometry>
                </mxCell>
                <mxCell id="15" value="" style="endArrow=none;html=1;entryX=0.5;entryY=1;entryDx=0;entryDy=0;exitX=0.5;exitY=0;exitDx=0;exitDy=0;" edge="1" parent="1" source="7" target="3">
                    <mxGeometry width="50" height="50" relative="1" as="geometry">
                        <mxPoint x="140" y="450" as="sourcePoint"/>
                        <mxPoint x="190" y="400" as="targetPoint"/>
                    </mxGeometry>
                </mxCell>
                <mxCell id="16" value="" style="endArrow=none;html=1;entryX=1;entryY=1;entryDx=0;entryDy=0;exitX=0.5;exitY=0;exitDx=0;exitDy=0;" edge="1" parent="1" source="5" target="4">
                    <mxGeometry width="50" height="50" relative="1" as="geometry">
                        <mxPoint x="390" y="440" as="sourcePoint"/>
                        <mxPoint x="440" y="390" as="targetPoint"/>
                    </mxGeometry>
                </mxCell>
                <mxCell id="17" value="" style="endArrow=none;html=1;entryX=0;entryY=1;entryDx=0;entryDy=0;exitX=0.5;exitY=0;exitDx=0;exitDy=0;" edge="1" parent="1" source="9" target="7">
                    <mxGeometry width="50" height="50" relative="1" as="geometry">
                        <mxPoint x="150" y="500" as="sourcePoint"/>
                        <mxPoint x="200" y="450" as="targetPoint"/>
                    </mxGeometry>
                </mxCell>
                <mxCell id="18" value="" style="endArrow=none;html=1;entryX=1;entryY=1;entryDx=0;entryDy=0;exitX=0.5;exitY=0;exitDx=0;exitDy=0;" edge="1" parent="1" source="10" target="7">
                    <mxGeometry width="50" height="50" relative="1" as="geometry">
                        <mxPoint x="280" y="470" as="sourcePoint"/>
                        <mxPoint x="330" y="420" as="targetPoint"/>
                    </mxGeometry>
                </mxCell>
                <mxCell id="22" value="" style="group" vertex="1" connectable="0" parent="1">
                    <mxGeometry x="80" y="520" width="200" height="40" as="geometry"/>
                </mxCell>
                <mxCell id="19" value="A" style="whiteSpace=wrap;html=1;aspect=fixed;" vertex="1" parent="22">
                    <mxGeometry width="40" height="40" as="geometry"/>
                </mxCell>
                <mxCell id="20" value="child" style="rounded=0;whiteSpace=wrap;html=1;" vertex="1" parent="22">
                    <mxGeometry x="40" width="80" height="40" as="geometry"/>
                </mxCell>
                <mxCell id="21" value="^" style="rounded=0;whiteSpace=wrap;html=1;" vertex="1" parent="22">
                    <mxGeometry x="120" width="80" height="40" as="geometry"/>
                </mxCell>
                <mxCell id="55" value="" style="group" vertex="1" connectable="0" parent="1">
                    <mxGeometry x="80" y="600" width="200" height="40" as="geometry"/>
                </mxCell>
                <mxCell id="56" value="B" style="whiteSpace=wrap;html=1;aspect=fixed;" vertex="1" parent="55">
                    <mxGeometry width="40" height="40" as="geometry"/>
                </mxCell>
                <mxCell id="57" value="child" style="rounded=0;whiteSpace=wrap;html=1;" vertex="1" parent="55">
                    <mxGeometry x="40" width="80" height="40" as="geometry"/>
                </mxCell>
                <mxCell id="58" value="brother" style="rounded=0;whiteSpace=wrap;html=1;" vertex="1" parent="55">
                    <mxGeometry x="120" width="80" height="40" as="geometry"/>
                </mxCell>
                <mxCell id="59" value="" style="group" vertex="1" connectable="0" parent="1">
                    <mxGeometry x="80" y="680" width="200" height="40" as="geometry"/>
                </mxCell>
                <mxCell id="60" value="D" style="whiteSpace=wrap;html=1;aspect=fixed;" vertex="1" parent="59">
                    <mxGeometry width="40" height="40" as="geometry"/>
                </mxCell>
                <mxCell id="61" value="^" style="rounded=0;whiteSpace=wrap;html=1;" vertex="1" parent="59">
                    <mxGeometry x="40" width="80" height="40" as="geometry"/>
                </mxCell>
                <mxCell id="62" value="brother" style="rounded=0;whiteSpace=wrap;html=1;" vertex="1" parent="59">
                    <mxGeometry x="120" width="80" height="40" as="geometry"/>
                </mxCell>
                <mxCell id="63" value="" style="group" vertex="1" connectable="0" parent="1">
                    <mxGeometry x="320" y="600" width="200" height="40" as="geometry"/>
                </mxCell>
                <mxCell id="64" value="C" style="whiteSpace=wrap;html=1;aspect=fixed;" vertex="1" parent="63">
                    <mxGeometry width="40" height="40" as="geometry"/>
                </mxCell>
                <mxCell id="65" value="child" style="rounded=0;whiteSpace=wrap;html=1;" vertex="1" parent="63">
                    <mxGeometry x="40" width="80" height="40" as="geometry"/>
                </mxCell>
                <mxCell id="66" value="^" style="rounded=0;whiteSpace=wrap;html=1;" vertex="1" parent="63">
                    <mxGeometry x="120" width="80" height="40" as="geometry"/>
                </mxCell>
                <mxCell id="67" value="" style="group" vertex="1" connectable="0" parent="1">
                    <mxGeometry x="320" y="680" width="200" height="40" as="geometry"/>
                </mxCell>
                <mxCell id="68" value="E" style="whiteSpace=wrap;html=1;aspect=fixed;" vertex="1" parent="67">
                    <mxGeometry width="40" height="40" as="geometry"/>
                </mxCell>
                <mxCell id="69" value="child" style="rounded=0;whiteSpace=wrap;html=1;" vertex="1" parent="67">
                    <mxGeometry x="40" width="80" height="40" as="geometry"/>
                </mxCell>
                <mxCell id="70" value="brother" style="rounded=0;whiteSpace=wrap;html=1;" vertex="1" parent="67">
                    <mxGeometry x="120" width="80" height="40" as="geometry"/>
                </mxCell>
                <mxCell id="71" value="" style="group" vertex="1" connectable="0" parent="1">
                    <mxGeometry x="320" y="760" width="200" height="40" as="geometry"/>
                </mxCell>
                <mxCell id="72" value="H" style="whiteSpace=wrap;html=1;aspect=fixed;" vertex="1" parent="71">
                    <mxGeometry width="40" height="40" as="geometry"/>
                </mxCell>
                <mxCell id="73" value="^" style="rounded=0;whiteSpace=wrap;html=1;" vertex="1" parent="71">
                    <mxGeometry x="40" width="80" height="40" as="geometry"/>
                </mxCell>
                <mxCell id="74" value="brother" style="rounded=0;whiteSpace=wrap;html=1;" vertex="1" parent="71">
                    <mxGeometry x="120" width="80" height="40" as="geometry"/>
                </mxCell>
                <mxCell id="75" value="" style="group" vertex="1" connectable="0" parent="1">
                    <mxGeometry x="560" y="680" width="200" height="40" as="geometry"/>
                </mxCell>
                <mxCell id="76" value="F" style="whiteSpace=wrap;html=1;aspect=fixed;" vertex="1" parent="75">
                    <mxGeometry width="40" height="40" as="geometry"/>
                </mxCell>
                <mxCell id="77" value="^" style="rounded=0;whiteSpace=wrap;html=1;" vertex="1" parent="75">
                    <mxGeometry x="40" width="80" height="40" as="geometry"/>
                </mxCell>
                <mxCell id="78" value="^" style="rounded=0;whiteSpace=wrap;html=1;" vertex="1" parent="75">
                    <mxGeometry x="120" width="80" height="40" as="geometry"/>
                </mxCell>
                <mxCell id="79" value="" style="group" vertex="1" connectable="0" parent="1">
                    <mxGeometry x="560" y="760" width="200" height="40" as="geometry"/>
                </mxCell>
                <mxCell id="80" value="I" style="whiteSpace=wrap;html=1;aspect=fixed;" vertex="1" parent="79">
                    <mxGeometry width="40" height="40" as="geometry"/>
                </mxCell>
                <mxCell id="81" value="^" style="rounded=0;whiteSpace=wrap;html=1;" vertex="1" parent="79">
                    <mxGeometry x="40" width="80" height="40" as="geometry"/>
                </mxCell>
                <mxCell id="82" value="^" style="rounded=0;whiteSpace=wrap;html=1;" vertex="1" parent="79">
                    <mxGeometry x="120" width="80" height="40" as="geometry"/>
                </mxCell>
                <mxCell id="83" value="" style="group" vertex="1" connectable="0" parent="1">
                    <mxGeometry x="800" y="680" width="200" height="40" as="geometry"/>
                </mxCell>
                <mxCell id="84" value="G" style="whiteSpace=wrap;html=1;aspect=fixed;" vertex="1" parent="83">
                    <mxGeometry width="40" height="40" as="geometry"/>
                </mxCell>
                <mxCell id="85" value="^" style="rounded=0;whiteSpace=wrap;html=1;" vertex="1" parent="83">
                    <mxGeometry x="40" width="80" height="40" as="geometry"/>
                </mxCell>
                <mxCell id="86" value="^" style="rounded=0;whiteSpace=wrap;html=1;" vertex="1" parent="83">
                    <mxGeometry x="120" width="80" height="40" as="geometry"/>
                </mxCell>
                <mxCell id="89" value="" style="endArrow=classic;html=1;exitX=1;exitY=0.5;exitDx=0;exitDy=0;entryX=0;entryY=0.5;entryDx=0;entryDy=0;" edge="1" parent="1" source="58" target="64">
                    <mxGeometry width="50" height="50" relative="1" as="geometry">
                        <mxPoint x="230" y="880" as="sourcePoint"/>
                        <mxPoint x="280" y="830" as="targetPoint"/>
                    </mxGeometry>
                </mxCell>
                <mxCell id="90" value="" style="endArrow=classic;html=1;exitX=1;exitY=0.5;exitDx=0;exitDy=0;entryX=0;entryY=0.5;entryDx=0;entryDy=0;" edge="1" parent="1" source="62" target="68">
                    <mxGeometry width="50" height="50" relative="1" as="geometry">
                        <mxPoint x="250" y="840" as="sourcePoint"/>
                        <mxPoint x="300" y="790" as="targetPoint"/>
                    </mxGeometry>
                </mxCell>
                <mxCell id="93" value="" style="endArrow=classic;html=1;exitX=1;exitY=0.5;exitDx=0;exitDy=0;entryX=0;entryY=0.5;entryDx=0;entryDy=0;" edge="1" parent="1" source="74" target="80">
                    <mxGeometry width="50" height="50" relative="1" as="geometry">
                        <mxPoint x="530" y="900" as="sourcePoint"/>
                        <mxPoint x="580" y="850" as="targetPoint"/>
                    </mxGeometry>
                </mxCell>
                <mxCell id="94" value="" style="edgeStyle=elbowEdgeStyle;elbow=vertical;endArrow=classic;html=1;curved=0;rounded=0;endSize=8;startSize=8;exitX=0.5;exitY=1;exitDx=0;exitDy=0;entryX=0.5;entryY=0;entryDx=0;entryDy=0;" edge="1" parent="1" source="65" target="84">
                    <mxGeometry width="50" height="50" relative="1" as="geometry">
                        <mxPoint x="580" y="580" as="sourcePoint"/>
                        <mxPoint x="630" y="530" as="targetPoint"/>
                        <Array as="points">
                            <mxPoint x="640" y="660"/>
                            <mxPoint x="760" y="670"/>
                            <mxPoint x="570" y="660"/>
                            <mxPoint x="510" y="660"/>
                        </Array>
                    </mxGeometry>
                </mxCell>
                <mxCell id="95" value="" style="edgeStyle=elbowEdgeStyle;elbow=vertical;endArrow=classic;html=1;curved=0;rounded=0;endSize=8;startSize=8;exitX=0.5;exitY=1;exitDx=0;exitDy=0;entryX=0.5;entryY=0;entryDx=0;entryDy=0;" edge="1" parent="1" source="20" target="56">
                    <mxGeometry width="50" height="50" relative="1" as="geometry">
                        <mxPoint x="130" y="500" as="sourcePoint"/>
                        <mxPoint x="180" y="450" as="targetPoint"/>
                        <Array as="points">
                            <mxPoint x="160" y="580"/>
                        </Array>
                    </mxGeometry>
                </mxCell>
                <mxCell id="96" value="" style="edgeStyle=elbowEdgeStyle;elbow=vertical;endArrow=classic;html=1;curved=0;rounded=0;endSize=8;startSize=8;exitX=0.5;exitY=1;exitDx=0;exitDy=0;entryX=0.5;entryY=0;entryDx=0;entryDy=0;" edge="1" parent="1">
                    <mxGeometry width="50" height="50" relative="1" as="geometry">
                        <mxPoint x="160" y="640" as="sourcePoint"/>
                        <mxPoint x="100" y="680" as="targetPoint"/>
                        <Array as="points">
                            <mxPoint x="160" y="660"/>
                        </Array>
                    </mxGeometry>
                </mxCell>
                <mxCell id="98" value="" style="edgeStyle=elbowEdgeStyle;elbow=vertical;endArrow=classic;html=1;curved=0;rounded=0;endSize=8;startSize=8;exitX=0.5;exitY=1;exitDx=0;exitDy=0;entryX=0.5;entryY=0;entryDx=0;entryDy=0;" edge="1" parent="1">
                    <mxGeometry width="50" height="50" relative="1" as="geometry">
                        <mxPoint x="400" y="720" as="sourcePoint"/>
                        <mxPoint x="340" y="760" as="targetPoint"/>
                        <Array as="points">
                            <mxPoint x="400" y="740"/>
                        </Array>
                    </mxGeometry>
                </mxCell>
                <mxCell id="99" value="" style="endArrow=classic;html=1;exitX=1;exitY=0.5;exitDx=0;exitDy=0;entryX=0;entryY=0.5;entryDx=0;entryDy=0;" edge="1" parent="1" source="70" target="76">
                    <mxGeometry width="50" height="50" relative="1" as="geometry">
                        <mxPoint x="550" y="910" as="sourcePoint"/>
                        <mxPoint x="600" y="860" as="targetPoint"/>
                    </mxGeometry>
                </mxCell>
                <mxCell id="128" value="" style="shape=table;startSize=0;container=1;collapsible=0;childLayout=tableLayout;" vertex="1" parent="1">
                    <mxGeometry x="560" y="120" width="320" height="400" as="geometry"/>
                </mxCell>
                <mxCell id="129" value="" style="shape=tableRow;horizontal=0;startSize=0;swimlaneHead=0;swimlaneBody=0;top=0;left=0;bottom=0;right=0;collapsible=0;dropTarget=0;fillColor=none;points=[[0,0.5],[1,0.5]];portConstraint=eastwest;" vertex="1" parent="128">
                    <mxGeometry width="320" height="40" as="geometry"/>
                </mxCell>
                <mxCell id="130" value="下标" style="shape=partialRectangle;html=1;whiteSpace=wrap;connectable=0;overflow=hidden;fillColor=none;top=0;left=0;bottom=0;right=0;pointerEvents=1;" vertex="1" parent="129">
                    <mxGeometry width="64" height="40" as="geometry">
                        <mxRectangle width="64" height="40" as="alternateBounds"/>
                    </mxGeometry>
                </mxCell>
                <mxCell id="131" value="data" style="shape=partialRectangle;html=1;whiteSpace=wrap;connectable=0;overflow=hidden;fillColor=none;top=0;left=0;bottom=0;right=0;pointerEvents=1;" vertex="1" parent="129">
                    <mxGeometry x="64" width="64" height="40" as="geometry">
                        <mxRectangle width="64" height="40" as="alternateBounds"/>
                    </mxGeometry>
                </mxCell>
                <mxCell id="132" value="parent" style="shape=partialRectangle;html=1;whiteSpace=wrap;connectable=0;overflow=hidden;fillColor=none;top=0;left=0;bottom=0;right=0;pointerEvents=1;" vertex="1" parent="129">
                    <mxGeometry x="128" width="64" height="40" as="geometry">
                        <mxRectangle width="64" height="40" as="alternateBounds"/>
                    </mxGeometry>
                </mxCell>
                <mxCell id="133" value="firstchild" style="shape=partialRectangle;html=1;whiteSpace=wrap;connectable=0;overflow=hidden;fillColor=none;top=0;left=0;bottom=0;right=0;pointerEvents=1;" vertex="1" parent="129">
                    <mxGeometry x="192" width="64" height="40" as="geometry">
                        <mxRectangle width="64" height="40" as="alternateBounds"/>
                    </mxGeometry>
                </mxCell>
                <mxCell id="179" value="rightsib" style="shape=partialRectangle;html=1;whiteSpace=wrap;connectable=0;overflow=hidden;fillColor=none;top=0;left=0;bottom=0;right=0;pointerEvents=1;" vertex="1" parent="129">
                    <mxGeometry x="256" width="64" height="40" as="geometry">
                        <mxRectangle width="64" height="40" as="alternateBounds"/>
                    </mxGeometry>
                </mxCell>
                <mxCell id="134" value="" style="shape=tableRow;horizontal=0;startSize=0;swimlaneHead=0;swimlaneBody=0;top=0;left=0;bottom=0;right=0;collapsible=0;dropTarget=0;fillColor=none;points=[[0,0.5],[1,0.5]];portConstraint=eastwest;" vertex="1" parent="128">
                    <mxGeometry y="40" width="320" height="40" as="geometry"/>
                </mxCell>
                <mxCell id="135" value="0" style="shape=partialRectangle;html=1;whiteSpace=wrap;connectable=0;overflow=hidden;fillColor=none;top=0;left=0;bottom=0;right=0;pointerEvents=1;" vertex="1" parent="134">
                    <mxGeometry width="64" height="40" as="geometry">
                        <mxRectangle width="64" height="40" as="alternateBounds"/>
                    </mxGeometry>
                </mxCell>
                <mxCell id="136" value="A" style="shape=partialRectangle;html=1;whiteSpace=wrap;connectable=0;overflow=hidden;fillColor=none;top=0;left=0;bottom=0;right=0;pointerEvents=1;" vertex="1" parent="134">
                    <mxGeometry x="64" width="64" height="40" as="geometry">
                        <mxRectangle width="64" height="40" as="alternateBounds"/>
                    </mxGeometry>
                </mxCell>
                <mxCell id="137" value="-1" style="shape=partialRectangle;html=1;whiteSpace=wrap;connectable=0;overflow=hidden;fillColor=none;top=0;left=0;bottom=0;right=0;pointerEvents=1;" vertex="1" parent="134">
                    <mxGeometry x="128" width="64" height="40" as="geometry">
                        <mxRectangle width="64" height="40" as="alternateBounds"/>
                    </mxGeometry>
                </mxCell>
                <mxCell id="138" value="1" style="shape=partialRectangle;html=1;whiteSpace=wrap;connectable=0;overflow=hidden;fillColor=none;top=0;left=0;bottom=0;right=0;pointerEvents=1;" vertex="1" parent="134">
                    <mxGeometry x="192" width="64" height="40" as="geometry">
                        <mxRectangle width="64" height="40" as="alternateBounds"/>
                    </mxGeometry>
                </mxCell>
                <mxCell id="180" value="-1" style="shape=partialRectangle;html=1;whiteSpace=wrap;connectable=0;overflow=hidden;fillColor=none;top=0;left=0;bottom=0;right=0;pointerEvents=1;" vertex="1" parent="134">
                    <mxGeometry x="256" width="64" height="40" as="geometry">
                        <mxRectangle width="64" height="40" as="alternateBounds"/>
                    </mxGeometry>
                </mxCell>
                <mxCell id="139" value="" style="shape=tableRow;horizontal=0;startSize=0;swimlaneHead=0;swimlaneBody=0;top=0;left=0;bottom=0;right=0;collapsible=0;dropTarget=0;fillColor=none;points=[[0,0.5],[1,0.5]];portConstraint=eastwest;" vertex="1" parent="128">
                    <mxGeometry y="80" width="320" height="40" as="geometry"/>
                </mxCell>
                <mxCell id="140" value="1" style="shape=partialRectangle;html=1;whiteSpace=wrap;connectable=0;overflow=hidden;fillColor=none;top=0;left=0;bottom=0;right=0;pointerEvents=1;" vertex="1" parent="139">
                    <mxGeometry width="64" height="40" as="geometry">
                        <mxRectangle width="64" height="40" as="alternateBounds"/>
                    </mxGeometry>
                </mxCell>
                <mxCell id="141" value="B" style="shape=partialRectangle;html=1;whiteSpace=wrap;connectable=0;overflow=hidden;fillColor=none;top=0;left=0;bottom=0;right=0;pointerEvents=1;" vertex="1" parent="139">
                    <mxGeometry x="64" width="64" height="40" as="geometry">
                        <mxRectangle width="64" height="40" as="alternateBounds"/>
                    </mxGeometry>
                </mxCell>
                <mxCell id="142" value="0" style="shape=partialRectangle;html=1;whiteSpace=wrap;connectable=0;overflow=hidden;fillColor=none;top=0;left=0;bottom=0;right=0;pointerEvents=1;" vertex="1" parent="139">
                    <mxGeometry x="128" width="64" height="40" as="geometry">
                        <mxRectangle width="64" height="40" as="alternateBounds"/>
                    </mxGeometry>
                </mxCell>
                <mxCell id="143" value="3" style="shape=partialRectangle;html=1;whiteSpace=wrap;connectable=0;overflow=hidden;fillColor=none;top=0;left=0;bottom=0;right=0;pointerEvents=1;" vertex="1" parent="139">
                    <mxGeometry x="192" width="64" height="40" as="geometry">
                        <mxRectangle width="64" height="40" as="alternateBounds"/>
                    </mxGeometry>
                </mxCell>
                <mxCell id="181" value="2" style="shape=partialRectangle;html=1;whiteSpace=wrap;connectable=0;overflow=hidden;fillColor=none;top=0;left=0;bottom=0;right=0;pointerEvents=1;" vertex="1" parent="139">
                    <mxGeometry x="256" width="64" height="40" as="geometry">
                        <mxRectangle width="64" height="40" as="alternateBounds"/>
                    </mxGeometry>
                </mxCell>
                <mxCell id="144" value="" style="shape=tableRow;horizontal=0;startSize=0;swimlaneHead=0;swimlaneBody=0;top=0;left=0;bottom=0;right=0;collapsible=0;dropTarget=0;fillColor=none;points=[[0,0.5],[1,0.5]];portConstraint=eastwest;" vertex="1" parent="128">
                    <mxGeometry y="120" width="320" height="40" as="geometry"/>
                </mxCell>
                <mxCell id="145" value="2" style="shape=partialRectangle;html=1;whiteSpace=wrap;connectable=0;overflow=hidden;fillColor=none;top=0;left=0;bottom=0;right=0;pointerEvents=1;" vertex="1" parent="144">
                    <mxGeometry width="64" height="40" as="geometry">
                        <mxRectangle width="64" height="40" as="alternateBounds"/>
                    </mxGeometry>
                </mxCell>
                <mxCell id="146" value="C" style="shape=partialRectangle;html=1;whiteSpace=wrap;connectable=0;overflow=hidden;fillColor=none;top=0;left=0;bottom=0;right=0;pointerEvents=1;" vertex="1" parent="144">
                    <mxGeometry x="64" width="64" height="40" as="geometry">
                        <mxRectangle width="64" height="40" as="alternateBounds"/>
                    </mxGeometry>
                </mxCell>
                <mxCell id="147" value="0" style="shape=partialRectangle;html=1;whiteSpace=wrap;connectable=0;overflow=hidden;fillColor=none;top=0;left=0;bottom=0;right=0;pointerEvents=1;" vertex="1" parent="144">
                    <mxGeometry x="128" width="64" height="40" as="geometry">
                        <mxRectangle width="64" height="40" as="alternateBounds"/>
                    </mxGeometry>
                </mxCell>
                <mxCell id="148" value="6" style="shape=partialRectangle;html=1;whiteSpace=wrap;connectable=0;overflow=hidden;fillColor=none;top=0;left=0;bottom=0;right=0;pointerEvents=1;" vertex="1" parent="144">
                    <mxGeometry x="192" width="64" height="40" as="geometry">
                        <mxRectangle width="64" height="40" as="alternateBounds"/>
                    </mxGeometry>
                </mxCell>
                <mxCell id="182" value="-1" style="shape=partialRectangle;html=1;whiteSpace=wrap;connectable=0;overflow=hidden;fillColor=none;top=0;left=0;bottom=0;right=0;pointerEvents=1;" vertex="1" parent="144">
                    <mxGeometry x="256" width="64" height="40" as="geometry">
                        <mxRectangle width="64" height="40" as="alternateBounds"/>
                    </mxGeometry>
                </mxCell>
                <mxCell id="149" value="" style="shape=tableRow;horizontal=0;startSize=0;swimlaneHead=0;swimlaneBody=0;top=0;left=0;bottom=0;right=0;collapsible=0;dropTarget=0;fillColor=none;points=[[0,0.5],[1,0.5]];portConstraint=eastwest;" vertex="1" parent="128">
                    <mxGeometry y="160" width="320" height="40" as="geometry"/>
                </mxCell>
                <mxCell id="150" value="3" style="shape=partialRectangle;html=1;whiteSpace=wrap;connectable=0;overflow=hidden;fillColor=none;top=0;left=0;bottom=0;right=0;pointerEvents=1;" vertex="1" parent="149">
                    <mxGeometry width="64" height="40" as="geometry">
                        <mxRectangle width="64" height="40" as="alternateBounds"/>
                    </mxGeometry>
                </mxCell>
                <mxCell id="151" value="D" style="shape=partialRectangle;html=1;whiteSpace=wrap;connectable=0;overflow=hidden;fillColor=none;top=0;left=0;bottom=0;right=0;pointerEvents=1;" vertex="1" parent="149">
                    <mxGeometry x="64" width="64" height="40" as="geometry">
                        <mxRectangle width="64" height="40" as="alternateBounds"/>
                    </mxGeometry>
                </mxCell>
                <mxCell id="152" value="1" style="shape=partialRectangle;html=1;whiteSpace=wrap;connectable=0;overflow=hidden;fillColor=none;top=0;left=0;bottom=0;right=0;pointerEvents=1;" vertex="1" parent="149">
                    <mxGeometry x="128" width="64" height="40" as="geometry">
                        <mxRectangle width="64" height="40" as="alternateBounds"/>
                    </mxGeometry>
                </mxCell>
                <mxCell id="153" value="-1" style="shape=partialRectangle;html=1;whiteSpace=wrap;connectable=0;overflow=hidden;fillColor=none;top=0;left=0;bottom=0;right=0;pointerEvents=1;" vertex="1" parent="149">
                    <mxGeometry x="192" width="64" height="40" as="geometry">
                        <mxRectangle width="64" height="40" as="alternateBounds"/>
                    </mxGeometry>
                </mxCell>
                <mxCell id="183" value="4" style="shape=partialRectangle;html=1;whiteSpace=wrap;connectable=0;overflow=hidden;fillColor=none;top=0;left=0;bottom=0;right=0;pointerEvents=1;" vertex="1" parent="149">
                    <mxGeometry x="256" width="64" height="40" as="geometry">
                        <mxRectangle width="64" height="40" as="alternateBounds"/>
                    </mxGeometry>
                </mxCell>
                <mxCell id="154" value="" style="shape=tableRow;horizontal=0;startSize=0;swimlaneHead=0;swimlaneBody=0;top=0;left=0;bottom=0;right=0;collapsible=0;dropTarget=0;fillColor=none;points=[[0,0.5],[1,0.5]];portConstraint=eastwest;" vertex="1" parent="128">
                    <mxGeometry y="200" width="320" height="40" as="geometry"/>
                </mxCell>
                <mxCell id="155" value="4" style="shape=partialRectangle;html=1;whiteSpace=wrap;connectable=0;overflow=hidden;fillColor=none;top=0;left=0;bottom=0;right=0;pointerEvents=1;" vertex="1" parent="154">
                    <mxGeometry width="64" height="40" as="geometry">
                        <mxRectangle width="64" height="40" as="alternateBounds"/>
                    </mxGeometry>
                </mxCell>
                <mxCell id="156" value="E" style="shape=partialRectangle;html=1;whiteSpace=wrap;connectable=0;overflow=hidden;fillColor=none;top=0;left=0;bottom=0;right=0;pointerEvents=1;" vertex="1" parent="154">
                    <mxGeometry x="64" width="64" height="40" as="geometry">
                        <mxRectangle width="64" height="40" as="alternateBounds"/>
                    </mxGeometry>
                </mxCell>
                <mxCell id="157" value="1" style="shape=partialRectangle;html=1;whiteSpace=wrap;connectable=0;overflow=hidden;fillColor=none;top=0;left=0;bottom=0;right=0;pointerEvents=1;" vertex="1" parent="154">
                    <mxGeometry x="128" width="64" height="40" as="geometry">
                        <mxRectangle width="64" height="40" as="alternateBounds"/>
                    </mxGeometry>
                </mxCell>
                <mxCell id="158" value="7" style="shape=partialRectangle;html=1;whiteSpace=wrap;connectable=0;overflow=hidden;fillColor=none;top=0;left=0;bottom=0;right=0;pointerEvents=1;" vertex="1" parent="154">
                    <mxGeometry x="192" width="64" height="40" as="geometry">
                        <mxRectangle width="64" height="40" as="alternateBounds"/>
                    </mxGeometry>
                </mxCell>
                <mxCell id="184" value="5" style="shape=partialRectangle;html=1;whiteSpace=wrap;connectable=0;overflow=hidden;fillColor=none;top=0;left=0;bottom=0;right=0;pointerEvents=1;" vertex="1" parent="154">
                    <mxGeometry x="256" width="64" height="40" as="geometry">
                        <mxRectangle width="64" height="40" as="alternateBounds"/>
                    </mxGeometry>
                </mxCell>
                <mxCell id="159" value="" style="shape=tableRow;horizontal=0;startSize=0;swimlaneHead=0;swimlaneBody=0;top=0;left=0;bottom=0;right=0;collapsible=0;dropTarget=0;fillColor=none;points=[[0,0.5],[1,0.5]];portConstraint=eastwest;" vertex="1" parent="128">
                    <mxGeometry y="240" width="320" height="40" as="geometry"/>
                </mxCell>
                <mxCell id="160" value="5" style="shape=partialRectangle;html=1;whiteSpace=wrap;connectable=0;overflow=hidden;fillColor=none;top=0;left=0;bottom=0;right=0;pointerEvents=1;" vertex="1" parent="159">
                    <mxGeometry width="64" height="40" as="geometry">
                        <mxRectangle width="64" height="40" as="alternateBounds"/>
                    </mxGeometry>
                </mxCell>
                <mxCell id="161" value="F" style="shape=partialRectangle;html=1;whiteSpace=wrap;connectable=0;overflow=hidden;fillColor=none;top=0;left=0;bottom=0;right=0;pointerEvents=1;" vertex="1" parent="159">
                    <mxGeometry x="64" width="64" height="40" as="geometry">
                        <mxRectangle width="64" height="40" as="alternateBounds"/>
                    </mxGeometry>
                </mxCell>
                <mxCell id="162" value="1" style="shape=partialRectangle;html=1;whiteSpace=wrap;connectable=0;overflow=hidden;fillColor=none;top=0;left=0;bottom=0;right=0;pointerEvents=1;" vertex="1" parent="159">
                    <mxGeometry x="128" width="64" height="40" as="geometry">
                        <mxRectangle width="64" height="40" as="alternateBounds"/>
                    </mxGeometry>
                </mxCell>
                <mxCell id="163" value="-1" style="shape=partialRectangle;html=1;whiteSpace=wrap;connectable=0;overflow=hidden;fillColor=none;top=0;left=0;bottom=0;right=0;pointerEvents=1;" vertex="1" parent="159">
                    <mxGeometry x="192" width="64" height="40" as="geometry">
                        <mxRectangle width="64" height="40" as="alternateBounds"/>
                    </mxGeometry>
                </mxCell>
                <mxCell id="185" value="-1" style="shape=partialRectangle;html=1;whiteSpace=wrap;connectable=0;overflow=hidden;fillColor=none;top=0;left=0;bottom=0;right=0;pointerEvents=1;" vertex="1" parent="159">
                    <mxGeometry x="256" width="64" height="40" as="geometry">
                        <mxRectangle width="64" height="40" as="alternateBounds"/>
                    </mxGeometry>
                </mxCell>
                <mxCell id="164" value="" style="shape=tableRow;horizontal=0;startSize=0;swimlaneHead=0;swimlaneBody=0;top=0;left=0;bottom=0;right=0;collapsible=0;dropTarget=0;fillColor=none;points=[[0,0.5],[1,0.5]];portConstraint=eastwest;" vertex="1" parent="128">
                    <mxGeometry y="280" width="320" height="40" as="geometry"/>
                </mxCell>
                <mxCell id="165" value="6" style="shape=partialRectangle;html=1;whiteSpace=wrap;connectable=0;overflow=hidden;fillColor=none;top=0;left=0;bottom=0;right=0;pointerEvents=1;" vertex="1" parent="164">
                    <mxGeometry width="64" height="40" as="geometry">
                        <mxRectangle width="64" height="40" as="alternateBounds"/>
                    </mxGeometry>
                </mxCell>
                <mxCell id="166" value="G" style="shape=partialRectangle;html=1;whiteSpace=wrap;connectable=0;overflow=hidden;fillColor=none;top=0;left=0;bottom=0;right=0;pointerEvents=1;" vertex="1" parent="164">
                    <mxGeometry x="64" width="64" height="40" as="geometry">
                        <mxRectangle width="64" height="40" as="alternateBounds"/>
                    </mxGeometry>
                </mxCell>
                <mxCell id="167" value="2" style="shape=partialRectangle;html=1;whiteSpace=wrap;connectable=0;overflow=hidden;fillColor=none;top=0;left=0;bottom=0;right=0;pointerEvents=1;" vertex="1" parent="164">
                    <mxGeometry x="128" width="64" height="40" as="geometry">
                        <mxRectangle width="64" height="40" as="alternateBounds"/>
                    </mxGeometry>
                </mxCell>
                <mxCell id="168" value="-1" style="shape=partialRectangle;html=1;whiteSpace=wrap;connectable=0;overflow=hidden;fillColor=none;top=0;left=0;bottom=0;right=0;pointerEvents=1;" vertex="1" parent="164">
                    <mxGeometry x="192" width="64" height="40" as="geometry">
                        <mxRectangle width="64" height="40" as="alternateBounds"/>
                    </mxGeometry>
                </mxCell>
                <mxCell id="186" value="-1" style="shape=partialRectangle;html=1;whiteSpace=wrap;connectable=0;overflow=hidden;fillColor=none;top=0;left=0;bottom=0;right=0;pointerEvents=1;" vertex="1" parent="164">
                    <mxGeometry x="256" width="64" height="40" as="geometry">
                        <mxRectangle width="64" height="40" as="alternateBounds"/>
                    </mxGeometry>
                </mxCell>
                <mxCell id="169" value="" style="shape=tableRow;horizontal=0;startSize=0;swimlaneHead=0;swimlaneBody=0;top=0;left=0;bottom=0;right=0;collapsible=0;dropTarget=0;fillColor=none;points=[[0,0.5],[1,0.5]];portConstraint=eastwest;" vertex="1" parent="128">
                    <mxGeometry y="320" width="320" height="40" as="geometry"/>
                </mxCell>
                <mxCell id="170" value="7" style="shape=partialRectangle;html=1;whiteSpace=wrap;connectable=0;overflow=hidden;fillColor=none;top=0;left=0;bottom=0;right=0;pointerEvents=1;" vertex="1" parent="169">
                    <mxGeometry width="64" height="40" as="geometry">
                        <mxRectangle width="64" height="40" as="alternateBounds"/>
                    </mxGeometry>
                </mxCell>
                <mxCell id="171" value="H" style="shape=partialRectangle;html=1;whiteSpace=wrap;connectable=0;overflow=hidden;fillColor=none;top=0;left=0;bottom=0;right=0;pointerEvents=1;" vertex="1" parent="169">
                    <mxGeometry x="64" width="64" height="40" as="geometry">
                        <mxRectangle width="64" height="40" as="alternateBounds"/>
                    </mxGeometry>
                </mxCell>
                <mxCell id="172" value="4" style="shape=partialRectangle;html=1;whiteSpace=wrap;connectable=0;overflow=hidden;fillColor=none;top=0;left=0;bottom=0;right=0;pointerEvents=1;" vertex="1" parent="169">
                    <mxGeometry x="128" width="64" height="40" as="geometry">
                        <mxRectangle width="64" height="40" as="alternateBounds"/>
                    </mxGeometry>
                </mxCell>
                <mxCell id="173" value="-1" style="shape=partialRectangle;html=1;whiteSpace=wrap;connectable=0;overflow=hidden;fillColor=none;top=0;left=0;bottom=0;right=0;pointerEvents=1;" vertex="1" parent="169">
                    <mxGeometry x="192" width="64" height="40" as="geometry">
                        <mxRectangle width="64" height="40" as="alternateBounds"/>
                    </mxGeometry>
                </mxCell>
                <mxCell id="187" value="8" style="shape=partialRectangle;html=1;whiteSpace=wrap;connectable=0;overflow=hidden;fillColor=none;top=0;left=0;bottom=0;right=0;pointerEvents=1;" vertex="1" parent="169">
                    <mxGeometry x="256" width="64" height="40" as="geometry">
                        <mxRectangle width="64" height="40" as="alternateBounds"/>
                    </mxGeometry>
                </mxCell>
                <mxCell id="174" value="" style="shape=tableRow;horizontal=0;startSize=0;swimlaneHead=0;swimlaneBody=0;top=0;left=0;bottom=0;right=0;collapsible=0;dropTarget=0;fillColor=none;points=[[0,0.5],[1,0.5]];portConstraint=eastwest;" vertex="1" parent="128">
                    <mxGeometry y="360" width="320" height="40" as="geometry"/>
                </mxCell>
                <mxCell id="175" value="8" style="shape=partialRectangle;html=1;whiteSpace=wrap;connectable=0;overflow=hidden;fillColor=none;top=0;left=0;bottom=0;right=0;pointerEvents=1;" vertex="1" parent="174">
                    <mxGeometry width="64" height="40" as="geometry">
                        <mxRectangle width="64" height="40" as="alternateBounds"/>
                    </mxGeometry>
                </mxCell>
                <mxCell id="176" value="I" style="shape=partialRectangle;html=1;whiteSpace=wrap;connectable=0;overflow=hidden;fillColor=none;top=0;left=0;bottom=0;right=0;pointerEvents=1;" vertex="1" parent="174">
                    <mxGeometry x="64" width="64" height="40" as="geometry">
                        <mxRectangle width="64" height="40" as="alternateBounds"/>
                    </mxGeometry>
                </mxCell>
                <mxCell id="177" value="4" style="shape=partialRectangle;html=1;whiteSpace=wrap;connectable=0;overflow=hidden;fillColor=none;top=0;left=0;bottom=0;right=0;pointerEvents=1;" vertex="1" parent="174">
                    <mxGeometry x="128" width="64" height="40" as="geometry">
                        <mxRectangle width="64" height="40" as="alternateBounds"/>
                    </mxGeometry>
                </mxCell>
                <mxCell id="178" value="-1" style="shape=partialRectangle;html=1;whiteSpace=wrap;connectable=0;overflow=hidden;fillColor=none;top=0;left=0;bottom=0;right=0;pointerEvents=1;" vertex="1" parent="174">
                    <mxGeometry x="192" width="64" height="40" as="geometry">
                        <mxRectangle width="64" height="40" as="alternateBounds"/>
                    </mxGeometry>
                </mxCell>
                <mxCell id="188" value="-1" style="shape=partialRectangle;html=1;whiteSpace=wrap;connectable=0;overflow=hidden;fillColor=none;top=0;left=0;bottom=0;right=0;pointerEvents=1;" vertex="1" parent="174">
                    <mxGeometry x="256" width="64" height="40" as="geometry">
                        <mxRectangle width="64" height="40" as="alternateBounds"/>
                    </mxGeometry>
                </mxCell>
                <mxCell id="189" value="节点结构" style="text;html=1;strokeColor=none;fillColor=none;align=center;verticalAlign=middle;whiteSpace=wrap;rounded=0;" vertex="1" parent="1">
                    <mxGeometry x="680" y="80" width="80" height="40" as="geometry"/>
                </mxCell>
                <mxCell id="192" value="&lt;font style=&quot;font-size: 15px;&quot;&gt;data为数据域：存储节点的数据信息&lt;br&gt;parent为双亲域：存储节点的双亲节点的存储地址&lt;br&gt;firstchild为长子域：存储节点的第一个子节点的存储地址&lt;br&gt;rightsib为右兄弟域：存储节点的右兄弟节点的存储地址&lt;/font&gt;" style="text;html=1;strokeColor=none;fillColor=none;align=left;verticalAlign=middle;whiteSpace=wrap;rounded=0;" vertex="1" parent="1">
                    <mxGeometry x="560" y="520" width="400" height="120" as="geometry"/>
                </mxCell>
            </root>
        </mxGraphModel>
    </diagram>
</mxfile>